<svg width="12" height="22" viewBox="0 0 12 22" fill="none" >
<path d="M0.999787 22.0004C0.802037 22.0004 0.608738 21.9417 0.444329 21.8318C0.279919 21.7219 0.151779 21.5658 0.0761092 21.3831C0.000439122 21.2004 -0.0193641 20.9993 0.0192034 20.8054C0.057771 20.6114 0.152978 20.4333 0.292787 20.2934L9.58579 11.0004L0.292787 1.70741C0.110629 1.5188 0.00983443 1.2662 0.0121129 1.00401C0.0143913 0.741809 0.11956 0.490997 0.304969 0.305588C0.490377 0.12018 0.741189 0.0150115 1.00339 0.0127331C1.26558 0.0104547 1.51818 0.111249 1.70679 0.293407L11.7068 10.2934C11.8943 10.4809 11.9996 10.7352 11.9996 11.0004C11.9996 11.2656 11.8943 11.5199 11.7068 11.7074L1.70679 21.7074C1.51929 21.895 1.26498 22.0003 0.999787 22.0004Z" fill="white"/>
</svg>
