<svg width="12" height="22" viewBox="0 0 12 22" fill="none" >
<path d="M11.0002 0.0122891C11.198 0.0123311 11.3913 0.071003 11.5557 0.180887C11.7201 0.290772 11.8482 0.446936 11.9239 0.629635C11.9996 0.812334 12.0194 1.01337 11.9808 1.20732C11.9422 1.40127 11.847 1.57944 11.7072 1.71929L2.41421 11.0123L11.7072 20.3053C11.8894 20.4939 11.9902 20.7465 11.9879 21.0087C11.9856 21.2709 11.8804 21.5217 11.695 21.7071C11.5096 21.8925 11.2588 21.9977 10.9966 22C10.7344 22.0022 10.4818 21.9014 10.2932 21.7193L0.293211 11.7193C0.10574 11.5318 0.000425355 11.2775 0.000425332 11.0123C0.000425309 10.7471 0.10574 10.4928 0.293211 10.3053L10.2932 0.305288C10.4807 0.117739 10.735 0.0123464 11.0002 0.0122891Z" fill="white"/>
</svg>
