<svg width="38" height="24" viewBox="0 0 38 24" fill="none" >
<path fill-rule="evenodd" clip-rule="evenodd" d="M0.200012 1.1998L0.600012 0.799805H24.24C26.5151 0.799805 28.6147 2.12915 29.6007 4.18696L29.6152 4.22108L31.3108 8.807L37.5363 11.0637L37.8 11.4398V19.9998L37.4 20.3998H33V19.5998H37V11.7203L30.8637 9.49586L30.6248 9.25852L28.8714 4.51624C28.0141 2.7434 26.1989 1.5998 24.24 1.5998H1.00001V19.5998H3.40001V20.3998H0.600012L0.200012 19.9998V1.1998Z" fill="black"/>
<path fill-rule="evenodd" clip-rule="evenodd" d="M9.80001 19.5998H26.6V20.3998H9.80001V19.5998Z" fill="black"/>
<path fill-rule="evenodd" clip-rule="evenodd" d="M6.52001 16.9198C4.94093 16.9198 3.68001 18.1807 3.68001 19.7598C3.68001 21.3021 4.94413 22.5998 6.52001 22.5998C8.06231 22.5998 9.36001 21.3357 9.36001 19.7598C9.36001 18.1807 8.0991 16.9198 6.52001 16.9198ZM2.88001 19.7598C2.88001 17.7389 4.4991 16.1198 6.52001 16.1198C8.54093 16.1198 10.16 17.7389 10.16 19.7598C10.16 21.7839 8.49771 23.3998 6.52001 23.3998C4.49589 23.3998 2.88001 21.7375 2.88001 19.7598Z" fill="black"/>
<path fill-rule="evenodd" clip-rule="evenodd" d="M32.6 19.7598C32.6 17.835 30.6781 16.3584 28.6275 17.1716L28.6122 17.1773C27.9378 17.4134 27.376 17.9979 27.092 18.707C26.1451 21.1298 28.446 23.4207 30.9292 22.4293C31.9337 22.0126 32.6 21.0024 32.6 19.8798V19.7598ZM28.3401 16.425C30.9267 15.4048 33.4 17.287 33.4 19.7598V19.8798C33.4 21.3164 32.5472 22.6256 31.233 23.1694L31.2286 23.1712C28.1131 24.4174 25.1361 21.5099 26.3475 18.414L26.3486 18.4112C26.7037 17.5234 27.4186 16.7505 28.3401 16.425Z" fill="black"/>
<path fill-rule="evenodd" clip-rule="evenodd" d="M16.2 3.1998L16.6 2.7998H23C24.6112 2.7998 26.0842 3.86887 26.5792 5.39241L27.8578 9.0684L27.48 9.5998H16.6L16.2 9.1998V3.1998ZM17 3.5998V8.7998H26.9174L25.8222 5.65121L25.8194 5.64293C25.4331 4.44874 24.2673 3.5998 23 3.5998H17Z" fill="black"/>
</svg>
