<svg width="16" height="16" viewBox="0 0 16 16" fill="none" xmlns="http://www.w3.org/2000/svg">
<g clip-path="url(#clip0_491_57476)">
<path d="M5.1718 5.17157C5.36707 4.97631 5.68365 4.97631 5.87891 5.17157L8.00023 7.29289L10.1216 5.17157C10.3168 4.97631 10.6334 4.97631 10.8287 5.17157C11.0239 5.36683 11.0239 5.68342 10.8287 5.87868L8.70734 8L10.8287 10.1213C11.0239 10.3166 11.0239 10.6332 10.8287 10.8284C10.6334 11.0237 10.3168 11.0237 10.1216 10.8284L8.00023 8.70711L5.87891 10.8284C5.68365 11.0237 5.36707 11.0237 5.1718 10.8284C4.97654 10.6332 4.97654 10.3166 5.1718 10.1213L7.29312 8L5.1718 5.87868C4.97654 5.68342 4.97654 5.36684 5.1718 5.17157Z" fill="#876C43"/>
<path fill-rule="evenodd" clip-rule="evenodd" d="M2.34338 13.6569C-0.780817 10.5327 -0.780817 5.46734 2.34338 2.34315C5.46757 -0.781048 10.5329 -0.781048 13.6571 2.34315C16.7813 5.46734 16.7813 10.5327 13.6571 13.6569C10.5329 16.781 5.46757 16.781 2.34338 13.6569ZM3.05048 3.05025C0.316814 5.78392 0.316814 10.2161 3.05048 12.9497C5.78415 15.6834 10.2163 15.6834 12.95 12.9497C15.6836 10.2161 15.6836 5.78392 12.95 3.05025C10.2163 0.316582 5.78415 0.316582 3.05048 3.05025Z" fill="#876C43"/>
</g>
<defs>
<clipPath id="clip0_491_57476">
<rect width="16" height="16" fill="white"/>
</clipPath>
</defs>
</svg>
