<svg width="61" height="60" viewBox="0 0 61 60" fill="none" xmlns="http://www.w3.org/2000/svg">
<path d="M42.7699 22.58C42.3899 22.33 41.8999 22.07 41.8999 22.07L31.5899 16.07C31.2577 15.8819 30.8816 15.7853 30.4999 15.79C30.1074 15.7918 29.7232 15.9026 29.3899 16.11L19.1999 22C19.1999 22 18.8899 22.17 18.5699 22.36L18.4699 22.42L18.3899 22.47H18.3299C17.9199 22.77 17.9199 23.02 17.9199 23.85V36.47C17.9289 36.7342 18.0121 36.9907 18.1599 37.21C18.2999 37.4354 18.492 37.624 18.7199 37.76L29.7199 44.07C29.8655 44.1565 30.0306 44.2047 30.1999 44.21C30.3054 44.203 30.408 44.1722 30.4999 44.12C30.5947 44.174 30.7009 44.2049 30.8099 44.21C30.9792 44.2047 31.1444 44.1565 31.2899 44.07L42.2899 37.76C42.5179 37.624 42.7099 37.4354 42.8499 37.21C42.9972 36.9904 43.0804 36.7342 43.0899 36.47V24.37C43.1199 23.5 43.2399 22.9 42.7699 22.58ZM30.1199 43.45H30.0499L19.0499 37.14C18.9249 37.0608 18.8191 36.9549 18.7399 36.83C18.6713 36.7288 18.63 36.6117 18.6199 36.49V24L29.6199 30.31H29.7199C29.8264 30.3818 29.9181 30.4734 29.9899 30.58C30.0577 30.6815 30.099 30.7984 30.1099 30.92V43.45H30.1199ZM30.4999 29.77C30.3684 29.7669 30.2389 29.7362 30.1199 29.68L19.1199 23.37L18.9599 23.3L18.8099 23.18C18.802 23.1192 18.8088 23.0575 18.8299 23L29.7399 16.7C29.9572 16.5588 30.2108 16.4837 30.4699 16.4837C30.7291 16.4837 30.9826 16.5588 31.1999 16.7L42.1199 23C42.1608 23.0244 42.1978 23.0548 42.2299 23.09C42.1791 23.1566 42.1142 23.2112 42.0399 23.25H41.9799L30.9799 29.56C30.8414 29.6714 30.6757 29.7439 30.4999 29.77ZM42.4099 36.47C42.3998 36.5917 42.3585 36.7088 42.2899 36.81C42.2137 36.9339 42.1113 37.0397 41.9899 37.12L30.9899 43.43H30.9299V30.93C30.9409 30.8084 30.9821 30.6915 31.0499 30.59C31.1273 30.4696 31.2296 30.3673 31.3499 30.29L42.4099 23.96V36.47Z" fill="white"/>
</svg>
