<svg width="61" height="60" viewBox="0 0 61 60" fill="none" >
<path d="M27.7702 29.3101L27.6802 29.7801L28.1502 32.2501C28.5172 31.4427 28.7341 30.5752 28.7902 29.6901C28.7982 29.5614 28.7812 29.4323 28.7402 29.3101H27.7402H27.7702Z" fill="white"/>
<path d="M45.3801 25.4601C45.0816 25.1806 44.689 25.0236 44.2801 25.0201H42.5001L42.8901 23.0201C42.9256 22.9003 42.9317 22.7738 42.908 22.6512C42.8844 22.5285 42.8316 22.4134 42.7542 22.3154C42.6768 22.2174 42.577 22.1394 42.4632 22.088C42.3493 22.0366 42.2248 22.0133 42.1001 22.0201H27.1701C27.0454 22.0133 26.921 22.0366 26.8071 22.088C26.6933 22.1394 26.5935 22.2174 26.5161 22.3154C26.4387 22.4134 26.3859 22.5285 26.3623 22.6512C26.3386 22.7738 26.3447 22.9003 26.3801 23.0201L26.7801 25.1101H27.1101C27.2922 25.1057 27.4729 25.1429 27.6384 25.2187C27.804 25.2945 27.9501 25.4071 28.0658 25.5478C28.1814 25.6884 28.2635 25.8536 28.3058 26.0307C28.3482 26.2078 28.3497 26.3923 28.3101 26.5701L28.1601 27.3101H28.8101C29.2912 27.3198 29.7512 27.5088 30.1001 27.8401C30.3385 28.0848 30.523 28.3768 30.6418 28.6971C30.7607 29.0174 30.8112 29.359 30.7901 29.7001C30.7307 31.6421 29.995 33.5025 28.7101 34.9601L29.0701 37.0001C29.1274 37.2519 29.2663 37.4777 29.4653 37.6423C29.6642 37.8069 29.9121 37.901 30.1701 37.9101H39.0101C39.2695 37.9015 39.5188 37.8077 39.7194 37.6432C39.9201 37.4787 40.0609 37.2527 40.1201 37.0001L40.6901 34.1101H41.5901C42.3162 34.071 43.0135 33.813 43.5901 33.3701C44.8801 32.2701 45.9901 29.0601 45.9901 27.2001C46.0116 26.8838 45.9686 26.5665 45.8638 26.2674C45.7589 25.9683 45.5944 25.6937 45.3801 25.4601ZM27.5001 25.0001L27.1001 22.9101C27.0901 22.8843 27.0901 22.8558 27.1001 22.8301C27.1259 22.82 27.1544 22.82 27.1801 22.8301H42.0901C42.1159 22.82 42.1444 22.82 42.1701 22.8301C42.1793 22.8559 42.1793 22.8842 42.1701 22.9101L41.7601 25.0001H27.5001ZM43.0901 32.7801C42.6603 33.1026 42.1463 33.2936 41.6101 33.3301H40.8501L42.3201 25.8801H44.3201C44.51 25.8856 44.6914 25.9603 44.8301 26.0901C44.9655 26.251 45.067 26.4375 45.1289 26.6385C45.1907 26.8395 45.2116 27.0509 45.1901 27.2601C45.1701 28.8801 44.1801 31.8101 43.0801 32.7501L43.0901 32.7801Z" fill="white"/>
<path d="M29.71 28.25C29.4639 28.0167 29.139 27.8847 28.8 27.88H27.5L27.78 26.45C27.8014 26.3564 27.8011 26.2592 27.7791 26.1657C27.7572 26.0723 27.7142 25.9851 27.6534 25.9108C27.5926 25.8366 27.5157 25.7771 27.4284 25.7371C27.3412 25.6971 27.246 25.6776 27.15 25.68H15.65C15.5532 25.676 15.4568 25.6944 15.3683 25.7337C15.2798 25.773 15.2016 25.8323 15.1396 25.9067C15.0777 25.9812 15.0338 26.069 15.0113 26.1632C14.9889 26.2574 14.9884 26.3556 15.01 26.45L17.08 37.22C17.1244 37.4196 17.234 37.5988 17.3915 37.7292C17.5491 37.8596 17.7456 37.9337 17.95 37.94H24.74C24.9457 37.9342 25.1436 37.8604 25.3029 37.7301C25.4621 37.5998 25.5736 37.4204 25.62 37.22L26.04 35.1H26.72C27.304 35.0707 27.8654 34.865 28.33 34.51C29.4786 33.1591 30.1406 31.4618 30.21 29.69C30.2306 29.4284 30.1968 29.1655 30.1108 28.9176C30.0247 28.6698 29.8883 28.4425 29.71 28.25ZM16.45 30L15.76 26.4H27.05L26.33 30H16.45ZM27.8 33.84C27.487 34.0763 27.1114 34.2154 26.72 34.24H26.21L27.29 28.72H28.81C28.9253 28.7262 29.0348 28.7722 29.12 28.85C29.3078 29.0799 29.3976 29.3744 29.37 29.67C29.2967 31.1902 28.7475 32.6489 27.8 33.84Z" fill="white"/>
</svg>
