<svg width="61" height="60" viewBox="0 0 61 60" fill="none" xmlns="http://www.w3.org/2000/svg">
<path d="M25.0811 38.3724L23.9004 40.4158L24.7662 40.9161L25.947 38.8727L25.0811 38.3724Z" fill="white"/>
<path d="M21.621 34.5466L19.5771 35.7266L20.0771 36.5926L22.121 35.4126L21.621 34.5466Z" fill="white"/>
<path d="M20.1729 23.3155L19.6729 24.1855L21.7261 25.3655L22.2261 24.4955L20.1729 23.3155Z" fill="white"/>
<path d="M24.7725 19.0731L23.9062 19.5726L25.0852 21.6171L25.9515 21.1175L24.7725 19.0731Z" fill="white"/>
<path d="M31 38.79H30V43.5H31V38.79Z" fill="white"/>
<path d="M21.71 29.5H17V30.5H21.71V29.5Z" fill="white"/>
<path d="M42.79 29.5C42.7165 27.684 42.2382 25.9074 41.39 24.3L40.89 23.43C39.9167 21.8944 38.6156 20.5933 37.08 19.62L36.21 19.12C34.5994 18.2707 32.8193 17.7924 31 17.72V16.5H30V21.21H31V20.08C33.4615 20.1944 35.7916 21.2236 37.534 22.966C39.2764 24.7084 40.3056 27.0385 40.42 29.5H39.29V30.5H40.42C40.3452 32.1558 39.8554 33.7662 38.9957 35.1833C38.136 36.6004 36.934 37.7788 35.5 38.61L35.07 38.86L36.25 40.86L37.12 40.36C38.656 39.3872 39.9572 38.086 40.93 36.55L41.43 35.68C42.2793 34.0694 42.7576 32.2893 42.83 30.47H44V29.47H42.79V29.5Z" fill="white"/>
<path d="M24.5 26.83L25.5 27.67C25.6301 27.3788 25.8401 27.1303 26.1055 26.9533C26.371 26.7764 26.6811 26.6781 27 26.67C27.1477 26.6383 27.3006 26.6404 27.4474 26.6762C27.5941 26.712 27.7309 26.7806 27.8473 26.8769C27.9637 26.9731 28.0569 27.0944 28.1197 27.2318C28.1825 27.3692 28.2134 27.519 28.21 27.67C28.1368 28.4408 27.8416 29.1738 27.36 29.78L24.5 34V34.46H30.36V33H27.05L28.88 30.21C29.4425 29.4725 29.7887 28.5931 29.88 27.67C29.8848 27.3508 29.8171 27.0346 29.682 26.7454C29.5469 26.4561 29.3479 26.2012 29.1 26C28.4763 25.5516 27.7167 25.3325 26.95 25.38C26.4203 25.3748 25.9 25.5205 25.45 25.8C25.046 26.0511 24.7177 26.4071 24.5 26.83Z" fill="white"/>
<path d="M37.1402 31.15C37.1854 30.3674 36.9275 29.5975 36.4202 29C36.1583 28.7407 35.8451 28.5392 35.5006 28.4083C35.1561 28.2774 34.7881 28.22 34.4202 28.24C34.0776 28.225 33.736 28.2865 33.4202 28.42V26.82H36.7102V25.46H31.9102V29.89L32.5002 30.3C32.6763 30.0849 32.8953 29.9089 33.1432 29.7832C33.3912 29.6575 33.6626 29.5849 33.9402 29.57C34.1525 29.5497 34.3668 29.5768 34.5674 29.6494C34.768 29.7221 34.95 29.8384 35.1002 29.99C35.3834 30.3736 35.5248 30.8437 35.5002 31.32C35.5002 32.58 34.9868 33.21 33.9602 33.21C33.3363 33.1426 32.7507 32.8762 32.2902 32.45L31.6602 33.76C32.3077 34.291 33.1229 34.5746 33.9602 34.56C36.0735 34.56 37.1335 33.4233 37.1402 31.15Z" fill="white"/>
</svg>
