<svg width="24" height="24" viewBox="0 0 24 24" fill="none" xmlns="http://www.w3.org/2000/svg">
<path d="M0 6.20067H14.5M14.5 6.20067C14.5 7.96798 16 8.00067 16.8 8.00067C17.6 8.00067 19 7.96798 19 6.20067M14.5 6.20067C14.5 4.43336 16.1 4.50067 16.8 4.50067C17.5 4.50067 19 4.43336 19 6.20067M19 6.20067H24" stroke="black"/>
<path d="M24 11.8007L9.5 11.8007M9.5 11.8007C9.5 10.0334 8 10.0007 7.2 10.0007C6.4 10.0007 5 10.0334 5 11.8007M9.5 11.8007C9.5 13.568 7.9 13.5007 7.2 13.5007C6.5 13.5007 5 13.568 5 11.8007M5 11.8007L0 11.8007" stroke="black"/>
<path d="M0 17.2013H14.5M14.5 17.2013C14.5 18.9687 16 19.0013 16.8 19.0013C17.6 19.0013 19 18.9687 19 17.2013M14.5 17.2013C14.5 15.434 16.1 15.5013 16.8 15.5013C17.5 15.5013 19 15.434 19 17.2013M19 17.2013H24" stroke="black"/>
</svg>
