<svg width="39" height="28" viewBox="0 0 39 28" fill="none" >
<path d="M37.4939 24.2665C37.4939 25.9932 36.1599 27.3332 34.5797 27.3332H4.09649C2.51632 27.3332 1.18359 25.9932 1.18359 24.2665V3.73317C1.18359 2.0065 2.51497 0.666504 4.09649 0.666504H34.5797C36.1599 0.666504 37.4939 2.0065 37.4939 3.73317V24.2665Z" fill="white" stroke="#B2B2B2"/>
<path d="M23.6826 20.6505H15.8853V6.70117H23.6839L23.6826 20.6505Z" fill="#FF5F00"/>
<path d="M16.3841 13.6747C16.3841 10.8454 17.7155 8.32407 19.7879 6.70007C18.221 5.46921 16.2799 4.80048 14.2808 4.80274C9.35876 4.80274 5.36865 8.77607 5.36865 13.6747C5.36865 18.5747 9.35876 22.5467 14.2808 22.5467C16.2799 22.549 18.221 21.8803 19.7879 20.6494C18.7255 19.8178 17.8673 18.758 17.2779 17.5499C16.6886 16.3417 16.3821 15.0168 16.3841 13.6747Z" fill="#EB001B"/>
<path d="M34.2004 13.6747C34.2004 18.5747 30.2103 22.5467 25.2882 22.5467C23.2887 22.5491 21.3472 21.8804 19.7798 20.6494C20.8427 19.8181 21.7015 18.7585 22.2914 17.5503C22.8812 16.3422 23.1867 15.017 23.1849 13.6747C23.1849 10.8454 21.8535 8.32407 19.7798 6.70007C21.3472 5.46921 23.2887 4.80049 25.2882 4.80274C30.2103 4.80274 34.2004 8.77607 34.2004 13.6747Z" fill="#F79E1B"/>
</svg>
