<svg width="39" height="28" viewBox="0 0 39 28" fill="none" xmlns="http://www.w3.org/2000/svg">
<path d="M1.18359 3.99984C1.18359 3.11578 1.53781 2.26794 2.16832 1.64281C2.79883 1.01769 3.65399 0.666504 4.54566 0.666504H34.1319C34.5734 0.666504 35.0106 0.752723 35.4185 0.920239C35.8264 1.08775 36.197 1.33329 36.5092 1.64281C36.8214 1.95234 37.0691 2.31981 37.238 2.72423C37.407 3.12864 37.4939 3.5621 37.4939 3.99984V23.9998C37.4939 24.4376 37.407 24.871 37.238 25.2754C37.0691 25.6799 36.8214 26.0473 36.5092 26.3569C36.197 26.6664 35.8264 26.9119 35.4185 27.0794C35.0106 27.2469 34.5734 27.3332 34.1319 27.3332H4.54566C4.10415 27.3332 3.66696 27.2469 3.25905 27.0794C2.85115 26.9119 2.48052 26.6664 2.16832 26.3569C1.53781 25.7317 1.18359 24.8839 1.18359 23.9998V3.99984Z" fill="white" stroke="#B2B2B2"/>
<path fill-rule="evenodd" clip-rule="evenodd" d="M17.3175 19.2775H14.7206L16.3438 8.84418H18.9407L17.3175 19.2775ZM26.7299 9.09884C25.99 8.80223 25.1988 8.65142 24.4007 8.65484C21.8361 8.65484 20.03 10.0762 20.0192 12.1082C19.9991 13.6055 21.313 14.4375 22.2947 14.9375C23.3006 15.4482 23.6409 15.7815 23.6409 16.2362C23.6315 16.9362 22.8299 17.2575 22.0809 17.2575C21.0454 17.2575 20.4899 17.0922 19.6467 16.7028L19.3038 16.5362L18.9407 18.8788C19.5499 19.1668 20.6715 19.4228 21.8361 19.4335C24.5607 19.4335 26.3346 18.0348 26.3547 15.8708C26.3655 14.6828 25.6716 13.7722 24.1761 13.0282C23.2683 12.5508 22.7116 12.2295 22.7116 11.7415C22.7224 11.2975 23.1823 10.8415 24.207 10.8415C24.8749 10.8218 25.538 10.9589 26.1422 11.2415L26.3762 11.3522L26.7299 9.09884ZM31.3777 8.84418H33.3855L35.4807 19.2775H33.0762C33.0762 19.2775 32.8408 18.0788 32.7669 17.7122H29.4317C29.3376 17.9895 28.8884 19.2775 28.8884 19.2775H26.1638L30.0207 9.70951C30.287 9.03218 30.7577 8.84418 31.3777 8.84418ZM31.2163 12.6628L30.1808 15.5828H32.3392C32.2316 15.0602 31.7408 12.5628 31.7408 12.5628L31.5592 11.6642C31.4826 11.8948 31.3709 12.2135 31.297 12.4282L31.2163 12.6628ZM12.5514 8.84418L10.0097 15.9588L9.73131 14.5162C9.26063 12.8508 7.78669 11.0415 6.14062 10.1428L8.46987 19.2668H11.216L15.2976 8.84418H12.5514Z" fill="#0742A6"/>
<path fill-rule="evenodd" clip-rule="evenodd" d="M7.64817 8.84424H3.46979L3.42676 9.0549C6.68662 9.92157 8.84372 12.0082 9.73131 14.5162L8.82221 9.72157C8.67159 9.0549 8.21434 8.8669 7.64817 8.84424Z" fill="#0742A6"/>
</svg>
