<svg width="17" height="16" viewBox="0 0 17 16" fill="none" xmlns="http://www.w3.org/2000/svg">
<path d="M4.39298 8C4.39298 6.91049 4.82578 5.8656 5.59618 5.09521C6.36658 4.32481 7.41147 3.892 8.50098 3.892C9.59049 3.892 10.6354 4.32481 11.4058 5.09521C12.1762 5.8656 12.609 6.91049 12.609 8C12.609 9.08951 12.1762 10.1344 11.4058 10.9048C10.6354 11.6752 9.59049 12.108 8.50098 12.108C7.41147 12.108 6.36658 11.6752 5.59618 10.9048C4.82578 10.1344 4.39298 9.08951 4.39298 8ZM5.83398 8C5.83398 8.70733 6.11496 9.38569 6.61512 9.88585C7.11528 10.386 7.79364 10.667 8.50098 10.667C9.20831 10.667 9.88667 10.386 10.3868 9.88585C10.887 9.38569 11.168 8.70733 11.168 8C11.168 7.29267 10.887 6.61431 10.3868 6.11415C9.88667 5.61399 9.20831 5.333 8.50098 5.333C7.79364 5.333 7.11528 5.61399 6.61512 6.11415C6.11496 6.61431 5.83398 7.29267 5.83398 8ZM5.20298 0.0479999C4.35098 0.0869999 3.76998 0.222 3.26098 0.42C2.72713 0.620935 2.24355 0.935926 1.84398 1.343C1.39898 1.787 1.12498 2.233 0.920977 2.76C0.722977 3.269 0.587976 3.85 0.548976 4.702C0.509976 5.555 0.500977 5.827 0.500977 8C0.500977 10.173 0.510976 10.445 0.548976 11.298C0.587976 12.15 0.722977 12.731 0.920977 13.24C1.12498 13.766 1.39898 14.213 1.84398 14.657C2.28798 15.102 2.73398 15.376 3.26098 15.58C3.76998 15.778 4.35098 15.913 5.20298 15.952C6.05598 15.99 6.32798 16 8.49998 16C10.672 16 10.945 15.99 11.798 15.952C12.65 15.913 13.231 15.778 13.74 15.58C14.2738 15.379 14.7574 15.064 15.157 14.657C15.602 14.212 15.876 13.767 16.08 13.24C16.278 12.731 16.413 12.15 16.452 11.298C16.491 10.445 16.5 10.173 16.5 8C16.5 5.827 16.49 5.555 16.452 4.702C16.413 3.85 16.278 3.269 16.08 2.76C15.879 2.22617 15.564 1.74259 15.157 1.343C14.7574 0.935926 14.2738 0.620935 13.74 0.42C13.231 0.222 12.65 0.0869999 11.798 0.0479999C10.946 0.00999986 10.674 0 8.50098 0C6.32798 0 6.05598 0.00999986 5.20298 0.0479999ZM12.77 4.69C12.5154 4.69 12.2712 4.58886 12.0912 4.40882C11.9111 4.22879 11.81 3.98461 11.81 3.73C11.81 3.47539 11.9111 3.23121 12.0912 3.05118C12.2712 2.87114 12.5154 2.77 12.77 2.77C13.0246 2.77 13.2688 2.87114 13.4488 3.05118C13.6288 3.23121 13.73 3.47539 13.73 3.73C13.73 3.98461 13.6288 4.22879 13.4488 4.40882C13.2688 4.58886 13.0246 4.69 12.77 4.69Z" fill="black"/>
</svg>
