<svg width="24" height="24" viewBox="0 0 24 24" fill="none" >
<path d="M17.0002 1.01229C17.198 1.01233 17.3913 1.071 17.5557 1.18089C17.7201 1.29077 17.8482 1.44694 17.9239 1.62963C17.9996 1.81233 18.0194 2.01337 17.9808 2.20732C17.9422 2.40127 17.847 2.57944 17.7072 2.71929L8.41421 12.0123L17.7072 21.3053C17.8894 21.4939 17.9902 21.7465 17.9879 22.0087C17.9856 22.2709 17.8804 22.5217 17.695 22.7071C17.5096 22.8925 17.2588 22.9977 16.9966 23C16.7344 23.0022 16.4818 22.9014 16.2932 22.7193L6.29321 12.7193C6.10574 12.5318 6.00043 12.2775 6.00043 12.0123C6.00043 11.7471 6.10574 11.4928 6.29321 11.3053L16.2932 1.30529C16.4807 1.11774 16.735 1.01235 17.0002 1.01229Z" fill="white"/>
</svg>
