<svg width="23" height="24" viewBox="0 0 23 24" fill="none" >
<path d="M11.5 1.5C17.299 1.5 22 6.20101 22 12C22 17.799 17.299 22.5 11.5 22.5C5.70101 22.5 1 17.799 1 12C1 6.20101 5.70101 1.5 11.5 1.5ZM11.5 0.5C5.14873 0.5 0 5.64873 0 12C0 18.3513 5.14873 23.5 11.5 23.5C17.8513 23.5 23 18.3513 23 12C23 5.64873 17.8513 0.5 11.5 0.5Z" fill="black"/>
<path fill-rule="evenodd" clip-rule="evenodd" d="M11.4927 14.9497L15.7354 10.7071L15.0282 10L11.4924 13.536L7.95718 10L7.25007 10.7071L11.1392 14.5962L11.4927 14.9497Z" fill="black"/>
</svg>
