<svg width="32" height="32" viewBox="0 0 32 32" fill="none" >
<path d="M15.707 3H3V15.707L18.5 31.207L31.207 18.5L15.707 3ZM4 15.293V4H15.293L29.793 18.5L18.5 29.793L4 15.293Z" fill="black"/>
<path d="M17.984 11L14.984 23H16.015L19.015 11H17.985H17.984ZM12.5 12C11.566 12 10 12.39 10 15C10 17.61 11.566 18 12.5 18C13.434 18 15 17.61 15 15C15 12.39 13.434 12 12.5 12ZM12.5 17C11.856 17 11 16.793 11 15C11 13.207 11.856 13 12.5 13C13.144 13 14 13.207 14 15C14 16.793 13.144 17 12.5 17ZM21.5 16C20.566 16 19 16.39 19 19C19 21.61 20.566 22 21.5 22C22.434 22 24 21.61 24 19C24 16.39 22.434 16 21.5 16ZM21.5 21C20.857 21 20 20.793 20 19C20 17.207 20.857 17 21.5 17C22.143 17 23 17.207 23 19C23 20.793 22.143 21 21.5 21ZM6.5 7.25C6.69891 7.25 6.88968 7.17098 7.03033 7.03033C7.17098 6.88968 7.25 6.69891 7.25 6.5C7.25 6.30109 7.17098 6.11032 7.03033 5.96967C6.88968 5.82902 6.69891 5.75 6.5 5.75C6.30109 5.75 6.11032 5.82902 5.96967 5.96967C5.82902 6.11032 5.75 6.30109 5.75 6.5C5.75 6.69891 5.82902 6.88968 5.96967 7.03033C6.11032 7.17098 6.30109 7.25 6.5 7.25Z" fill="black"/>
</svg>
