<svg width="16" height="16" viewBox="0 0 16 16" fill="none" xmlns="http://www.w3.org/2000/svg">
<path d="M15.5 5.49095H10.1L8.477 0.312947C8.43664 0.219972 8.36999 0.140819 8.28525 0.0852198C8.2005 0.0296207 8.10136 0 8 0C7.89864 0 7.7995 0.0296207 7.71475 0.0852198C7.63001 0.140819 7.56336 0.219972 7.523 0.312947L5.9 5.49095H0.5C0.395059 5.49095 0.292778 5.52397 0.207645 5.58533C0.122512 5.64669 0.0588437 5.73328 0.0256584 5.83283C-0.00752698 5.93239 -0.00854684 6.03986 0.0227432 6.14003C0.0540333 6.2402 0.116047 6.32798 0.2 6.39095L4.5 9.62095L2.807 14.8279C2.77481 14.9282 2.77512 15.0361 2.80789 15.1362C2.84065 15.2364 2.90419 15.3236 2.98944 15.3854C3.07469 15.4473 3.1773 15.4806 3.28263 15.4807C3.38796 15.4808 3.49064 15.4477 3.576 15.3859L8 12.1719L12.424 15.3859C12.5094 15.4477 12.612 15.4808 12.7174 15.4807C12.8227 15.4806 12.9253 15.4473 13.0106 15.3854C13.0958 15.3236 13.1594 15.2364 13.1921 15.1362C13.2249 15.0361 13.2252 14.9282 13.193 14.8279L11.5 9.62095L15.8 6.39095C15.884 6.32798 15.946 6.2402 15.9773 6.14003C16.0085 6.03986 16.0075 5.93239 15.9743 5.83283C15.9412 5.73328 15.8775 5.64669 15.7924 5.58533C15.7072 5.52397 15.6049 5.49095 15.5 5.49095Z" fill="#FFC700"/>
</svg>
