<svg width="24" height="24" viewBox="0 0 24 24" fill="none" xmlns="http://www.w3.org/2000/svg">
<path d="M6.99979 23.0004C6.80204 23.0004 6.60874 22.9417 6.44433 22.8318C6.27992 22.7219 6.15178 22.5658 6.07611 22.3831C6.00044 22.2004 5.98064 21.9993 6.0192 21.8054C6.05777 21.6114 6.15298 21.4333 6.29279 21.2934L15.5858 12.0004L6.29279 2.70741C6.11063 2.5188 6.00983 2.2662 6.01211 2.00401C6.01439 1.74181 6.11956 1.491 6.30497 1.30559C6.49038 1.12018 6.74119 1.01501 7.00339 1.01273C7.26558 1.01045 7.51818 1.11125 7.70679 1.29341L17.7068 11.2934C17.8943 11.4809 17.9996 11.7352 17.9996 12.0004C17.9996 12.2656 17.8943 12.5199 17.7068 12.7074L7.70679 22.7074C7.51929 22.895 7.26498 23.0003 6.99979 23.0004Z" fill="white"/>
</svg>
