<svg width="24" height="24" viewBox="0 0 24 24" fill="none" xmlns="http://www.w3.org/2000/svg">
<path d="M22.9997 11.4333L20.136 10.4018L19.3939 8.3949C18.9584 7.46601 18.0168 6.86713 16.9949 6.86713H6.37695V15.5913H7.60322C7.67865 16.4469 8.39641 17.1215 9.26745 17.1215C10.1385 17.1215 10.8562 16.4493 10.9317 15.5913H10.6032V15.1024H10.9073C10.7565 14.3275 10.0898 13.7604 9.26745 13.7604C8.44507 13.7604 7.78084 14.3275 7.62755 15.1024H6.86357V7.35601H16.9949C17.8416 7.35601 18.591 7.83512 18.9438 8.58556L19.7564 10.7855L22.5131 11.778V15.1024H21.1117C21.0241 14.6649 20.7686 14.2786 20.3866 14.0318C19.8951 13.7115 19.2869 13.6724 18.7321 13.9193C18.3745 14.0586 18.0849 14.3373 17.9414 14.682C17.8781 14.8213 17.8367 14.9631 17.81 15.1024H18.0922V15.5913H17.7783C17.8075 15.9726 17.9608 16.3344 18.2382 16.6204C18.5642 16.9577 18.9949 17.1362 19.4499 17.1362C19.6907 17.1362 19.9365 17.0873 20.1774 16.9846C20.737 16.7548 21.1044 16.2146 21.1409 15.5913H22.9973V11.4333H22.9997ZM9.26745 14.2493C9.93168 14.2493 10.4524 14.7724 10.4524 15.4397C10.4524 16.1071 9.91951 16.6302 9.26745 16.6302C8.61538 16.6302 8.08254 16.0949 8.08254 15.4397C8.08254 14.7846 8.60322 14.2493 9.26745 14.2493ZM20.664 15.4862C20.664 15.9531 20.4012 16.3637 19.9949 16.53C19.4864 16.7426 18.9487 16.6473 18.5934 16.2782C18.2431 15.914 18.1652 15.3786 18.3939 14.8751C18.4888 14.6477 18.6786 14.4644 18.9243 14.3691C19.1068 14.2884 19.2942 14.2469 19.4766 14.2469C19.7078 14.2469 19.9292 14.3104 20.1263 14.44C20.4645 14.66 20.6664 15.034 20.6664 15.4397V15.4862H20.664Z" fill="black"/>
<path d="M18.209 8.96689C17.9875 8.27511 17.3403 7.80823 16.5958 7.80823H13.6348V10.8858H18.8829L18.209 8.96689ZM14.1214 10.3969V8.29711H16.5958C17.1287 8.29711 17.5909 8.62711 17.7491 9.12333L18.1968 10.3969H14.1238H14.1214Z" fill="black"/>
<path d="M18.0945 15.1024H17.8122H10.9047H10.6006V15.5913H10.9315H17.7806H18.0945V15.1024Z" fill="black"/>
<path d="M5.91725 8.51468H1V9.00357H5.91725V8.51468Z" fill="black"/>
<path d="M5.91944 10.6316H2.63965V11.1204H5.91944V10.6316Z" fill="black"/>
<path d="M5.91756 12.9831H4.51367V13.472H5.91756V12.9831Z" fill="black"/>
</svg>
