<svg width="14" height="11" viewBox="0 0 14 11" fill="none" >
<path d="M10.9 2H10.4V0H0.400024V8.49996C0.400024 9.87886 1.5216 11 2.90002 11H7.90002C9.27892 11 10.4 9.87886 10.4 8.49996V6.99996H10.9C12.109 6.99996 13.4 6.34276 13.4 4.49996C13.4 2.65723 12.109 2 10.9 2ZM9.40002 1V3.99996H1.40002V1H9.40002ZM9.40002 8.49996C9.40002 9.32716 8.72722 9.99996 7.90002 9.99996H2.90002C2.07287 9.99996 1.40002 9.32716 1.40002 8.49996V4.99996H9.40002V8.49996ZM10.9 5.99996H10.4V3H10.9C11.5846 3 12.4 3.25976 12.4 4.49996C12.4 5.74026 11.5846 5.99996 10.9 5.99996Z" fill="black"/>
</svg>
