<svg width="13" height="11" viewBox="0 0 13 11" fill="none" >
<path d="M10.4 2H10.1809L10.4811 0H0.319458L1.77747 9.72266C1.88929 10.4629 2.51331 11 3.26136 11H7.53873C8.27603 11 8.91373 10.4512 9.02213 9.72266L9.50573 6.49996H10.4C12.5748 6.49996 12.9 5.08986 12.9 4.24996C12.9 3.41016 12.5748 2 10.4 2ZM7.53873 9.99996H3.26136C3.01575 9.99996 2.80335 9.81636 2.76673 9.57426L2.30561 6.49996H8.49453L8.03383 9.57426C7.99673 9.81736 7.78483 9.99996 7.53873 9.99996ZM8.64453 5.49996H2.15558L1.4806 1H9.31903L8.64453 5.49996ZM10.4 5.49996H9.65573L10.0309 3H10.4C11.7184 3 11.9 3.60056 11.9 4.24996C11.9 4.89936 11.7184 5.49996 10.4 5.49996Z" fill="black"/>
</svg>
