<svg width="61" height="60" viewBox="0 0 61 60" fill="none" >
<path d="M28.9398 18.19C29.1579 18.1971 29.375 18.1572 29.5763 18.0729C29.7776 17.9887 29.9584 17.8621 30.1064 17.7018C30.2544 17.5414 30.3661 17.3511 30.434 17.1437C30.5019 16.9364 30.5244 16.7168 30.4998 16.5C30.5195 16.2933 30.4955 16.0849 30.4293 15.8881C30.3631 15.6914 30.2563 15.5108 30.1158 15.358C29.9753 15.2052 29.8042 15.0837 29.6137 15.0013C29.4231 14.919 29.2174 14.8776 29.0098 14.88C28.7978 14.8832 28.5887 14.9302 28.3957 15.0181C28.2027 15.1059 28.0299 15.2326 27.8881 15.3903C27.7463 15.5481 27.6387 15.7334 27.5719 15.9346C27.5051 16.1359 27.4805 16.3488 27.4998 16.56C27.4791 16.7632 27.5006 16.9686 27.5631 17.1631C27.6257 17.3576 27.7278 17.5371 27.863 17.6902C27.9983 17.8433 28.1638 17.9668 28.3491 18.0528C28.5345 18.1388 28.7356 18.1855 28.9398 18.19ZM28.9398 15.35C29.0783 15.3629 29.2126 15.4046 29.3341 15.4723C29.4556 15.5401 29.5616 15.6324 29.6454 15.7435C29.7291 15.8545 29.7888 15.9819 29.8205 16.1173C29.8523 16.2527 29.8555 16.3933 29.8298 16.53C29.872 16.6689 29.881 16.8158 29.8561 16.9589C29.8313 17.102 29.7733 17.2372 29.6868 17.3539C29.6003 17.4705 29.4877 17.5652 29.3579 17.6305C29.2282 17.6958 29.0851 17.7298 28.9398 17.7298C28.7946 17.7298 28.6514 17.6958 28.5217 17.6305C28.392 17.5652 28.2794 17.4705 28.1929 17.3539C28.1064 17.2372 28.0484 17.102 28.0236 16.9589C27.9987 16.8158 28.0077 16.6689 28.0498 16.53C28.0241 16.3909 28.0282 16.248 28.0617 16.1107C28.0953 15.9733 28.1576 15.8446 28.2445 15.7331C28.3315 15.6216 28.4411 15.5298 28.5661 15.4637C28.6911 15.3977 28.8287 15.3589 28.9698 15.35H28.9398Z" fill="white"/>
<path d="M31.5005 18.14V17C31.5005 16.47 31.5005 16 31.5005 15.63C31.6727 16.0107 31.8663 16.3813 32.0805 16.74L32.9205 18.15H33.5005V14.93H32.9805V16C32.9805 16.49 32.9805 16.9 33.0305 17.33C32.8765 16.9755 32.6994 16.6314 32.5005 16.3L31.6705 14.92H30.9805V18.13H31.5005V18.14Z" fill="white"/>
<path d="M21.1898 41.66C21.1898 41.85 21.0998 42.09 21.0398 42.28L20.8398 43H21.5498L21.3498 42.32C21.2898 42.09 21.2398 41.85 21.1898 41.66Z" fill="white"/>
<path d="M30.3599 41.63C30.2355 41.6467 30.1158 41.6888 30.0082 41.7535C29.9006 41.8182 29.8074 41.9043 29.7343 42.0064C29.6613 42.1085 29.6099 42.2245 29.5833 42.3472C29.5568 42.47 29.5556 42.5968 29.5799 42.72C29.5556 42.842 29.5569 42.9678 29.5836 43.0893C29.6103 43.2108 29.662 43.3255 29.7353 43.426C29.8086 43.5266 29.9019 43.6109 30.0095 43.6735C30.117 43.7361 30.2363 43.7758 30.3599 43.79C30.5858 43.7137 30.7821 43.5684 30.9212 43.3747C31.0602 43.1809 31.135 42.9485 31.135 42.71C31.135 42.4715 31.0602 42.2391 30.9212 42.0453C30.7821 41.8516 30.5858 41.7063 30.3599 41.63Z" fill="white"/>
<path d="M34.7398 41.63C34.6154 41.6467 34.4957 41.6888 34.3881 41.7535C34.2805 41.8182 34.1873 41.9043 34.1142 42.0064C34.0411 42.1085 33.9897 42.2245 33.9632 42.3472C33.9366 42.47 33.9355 42.5968 33.9598 42.72C33.9355 42.842 33.9367 42.9678 33.9635 43.0893C33.9902 43.2108 34.0419 43.3255 34.1152 43.426C34.1885 43.5266 34.2818 43.6109 34.3893 43.6735C34.4969 43.7361 34.6162 43.7758 34.7398 43.79C34.9657 43.7137 35.162 43.5684 35.301 43.3747C35.4401 43.1809 35.5148 42.9485 35.5148 42.71C35.5148 42.4715 35.4401 42.2391 35.301 42.0453C35.162 41.8516 34.9657 41.7063 34.7398 41.63Z" fill="white"/>
<path d="M44 40.33H17V45.11H44V40.33ZM21.91 44.33L21.66 43.51H20.74L20.5 44.33H19.76L20.76 41.12H21.76L22.76 44.33H21.9H21.91ZM24.4 44.38C24.2112 44.3929 24.022 44.3621 23.847 44.29C23.6721 44.2179 23.5161 44.1064 23.3913 43.9641C23.2665 43.8219 23.1761 43.6528 23.1274 43.4699C23.0786 43.2871 23.0726 43.0955 23.11 42.91V41.11H23.84V43C23.84 43.55 24.05 43.83 24.42 43.83C24.79 43.83 25.01 43.56 25.01 43V41.11H25.73V42.91C25.7626 43.099 25.7515 43.2931 25.6977 43.4772C25.6439 43.6614 25.5487 43.8308 25.4195 43.9726C25.2902 44.1144 25.1303 44.2248 24.9519 44.2954C24.7735 44.366 24.5813 44.3949 24.39 44.38H24.4ZM28.59 41.73H27.71V44.33H26.98V41.73H26.12V41.11H28.59V41.72V41.73ZM30.34 44.38C30.1307 44.3821 29.9233 44.3405 29.7311 44.2578C29.5389 44.175 29.3662 44.0529 29.224 43.8994C29.0817 43.7459 28.9732 43.5643 28.9054 43.3664C28.8375 43.1684 28.8119 42.9584 28.83 42.75C28.8119 42.5349 28.8389 42.3184 28.9093 42.1144C28.9796 41.9104 29.0919 41.7233 29.2387 41.5652C29.3856 41.407 29.5638 41.2813 29.7621 41.196C29.9603 41.1107 30.1742 41.0678 30.39 41.07C30.6 41.0651 30.8087 41.1044 31.0026 41.1853C31.1964 41.2662 31.3711 41.3869 31.5154 41.5396C31.6596 41.6923 31.7701 41.8736 31.8399 42.0718C31.9096 42.27 31.9369 42.4806 31.92 42.69C31.9417 42.9083 31.9162 43.1287 31.8453 43.3363C31.7743 43.5439 31.6596 43.7338 31.5087 43.8931C31.3579 44.0525 31.1746 44.1775 30.9713 44.2598C30.7679 44.3421 30.5492 44.3796 30.33 44.37L30.34 44.38ZM34.72 44.38C34.5107 44.3821 34.3033 44.3405 34.1111 44.2578C33.9189 44.175 33.7462 44.0529 33.604 43.8994C33.4617 43.7459 33.3532 43.5643 33.2854 43.3664C33.2175 43.1684 33.1919 42.9584 33.21 42.75C33.1919 42.5349 33.2189 42.3184 33.2893 42.1144C33.3596 41.9104 33.4719 41.7233 33.6187 41.5652C33.7656 41.407 33.9438 41.2813 34.1421 41.196C34.3403 41.1107 34.5542 41.0678 34.77 41.07C34.98 41.0651 35.1887 41.1044 35.3826 41.1853C35.5764 41.2662 35.7511 41.3869 35.8954 41.5396C36.0396 41.6923 36.1501 41.8736 36.2199 42.0718C36.2896 42.27 36.3169 42.4806 36.3 42.69C36.3217 42.9083 36.2962 43.1287 36.2253 43.3363C36.1543 43.5439 36.0396 43.7338 35.8887 43.8931C35.7379 44.0525 35.5546 44.1775 35.3513 44.2598C35.1479 44.3421 34.9292 44.3796 34.71 44.37L34.72 44.38ZM38.72 41.71H37.5V42.44H38.65V43H37.5V44.29H36.76V41.11H38.76V41.71H38.72ZM41.15 42.44V43H40V44.29H39.27V41.11H41.27V41.71H40V42.44H41.15Z" fill="white"/>
<path d="M30.4996 37.3001C32.0942 37.3001 33.6529 36.8271 34.9785 35.941C36.3042 35.0549 37.3373 33.7955 37.947 32.3222C38.5568 30.8488 38.7158 29.2277 38.404 27.6639C38.0922 26.1002 37.3236 24.6641 36.1953 23.5372C35.0671 22.4104 33.63 21.6436 32.0659 21.3337C30.5018 21.0238 28.8808 21.1849 27.4082 21.7965C25.9356 22.408 24.6775 23.4427 23.7931 24.7694C22.9087 26.0962 22.4376 27.6555 22.4396 29.2501C22.433 30.3099 22.637 31.3605 23.0398 32.3408C23.4426 33.3212 24.0362 34.2117 24.7861 34.9606C25.536 35.7096 26.4273 36.3021 27.4081 36.7037C28.3889 37.1053 29.4398 37.308 30.4996 37.3001ZM30.4996 22.0001C32.385 22.0699 34.1699 22.868 35.479 24.2266C36.7882 25.5852 37.5197 27.3984 37.5197 29.2851C37.5197 31.1717 36.7882 32.985 35.479 34.3435C34.1699 35.7021 32.385 36.5002 30.4996 36.5701C28.6142 36.5002 26.8293 35.7021 25.5202 34.3435C24.211 32.985 23.4796 31.1717 23.4796 29.2851C23.4796 27.3984 24.211 25.5852 25.5202 24.2266C26.8293 22.868 28.6142 22.0699 30.4996 22.0001Z" fill="white"/>
<path d="M42.1801 30.54C42.0062 32.5942 41.2959 34.5667 40.1201 36.26C40.0622 36.345 40.0402 36.4495 40.059 36.5506C40.0777 36.6518 40.1356 36.7414 40.2201 36.8C40.2844 36.8456 40.3613 36.8701 40.4401 36.87C40.5032 36.8697 40.5653 36.8541 40.6211 36.8245C40.6768 36.7948 40.7245 36.7522 40.7601 36.7C42.3953 34.3521 43.1804 31.5165 42.9859 28.6619C42.7913 25.8073 41.6287 23.1045 39.6901 21C39.6588 20.9535 39.6179 20.9143 39.5701 20.8851C39.5223 20.8558 39.4687 20.8372 39.413 20.8305C39.3574 20.8239 39.301 20.8293 39.2476 20.8464C39.1942 20.8635 39.1451 20.8919 39.1037 20.9296C39.0623 20.9674 39.0295 21.0137 39.0076 21.0653C38.9857 21.1169 38.9752 21.1726 38.9767 21.2286C38.9783 21.2846 38.9919 21.3397 39.0166 21.39C39.0414 21.4403 39.0767 21.4846 39.1201 21.52C40.2274 22.7294 41.0713 24.1557 41.598 25.7085C42.1248 27.2612 42.323 28.9066 42.1801 30.54Z" fill="white"/>
<path d="M30.5003 34.3C30.7655 34.3 31.0199 34.1946 31.2074 34.0071C31.395 33.8196 31.5003 33.5652 31.5003 33.3V25.15C31.4427 24.9381 31.3171 24.7511 31.1427 24.6178C30.9683 24.4845 30.7548 24.4122 30.5353 24.4122C30.3158 24.4122 30.1024 24.4845 29.928 24.6178C29.7536 24.7511 29.6279 24.9381 29.5703 25.15V33.34C29.5796 33.5865 29.6797 33.821 29.8514 33.9982C30.023 34.1754 30.2542 34.2829 30.5003 34.3Z" fill="white"/>
<path d="M38.1398 21.02C38.6258 21.02 39.0198 20.626 39.0198 20.14C39.0198 19.654 38.6258 19.26 38.1398 19.26C37.6538 19.26 37.2598 19.654 37.2598 20.14C37.2598 20.626 37.6538 21.02 38.1398 21.02Z" fill="white"/>
<path d="M39.4195 39.03C39.9166 39.03 40.3195 38.627 40.3195 38.13C40.3195 37.6329 39.9166 37.23 39.4195 37.23C38.9225 37.23 38.5195 37.6329 38.5195 38.13C38.5195 38.627 38.9225 39.03 39.4195 39.03Z" fill="white"/>
</svg>
