<svg width="17" height="13" viewBox="0 0 17 13" fill="none" >
<path fill-rule="evenodd" clip-rule="evenodd" d="M16.5 1.51501C15.8999 1.77683 15.2643 1.94836 14.614 2.02401C15.2972 1.62399 15.8107 0.988125 16.058 0.236012C15.424 0.606012 14.721 0.876012 13.973 1.02101C13.6637 0.697229 13.2919 0.439744 12.88 0.264221C12.468 0.0886974 12.0247 -0.00119492 11.577 1.19939e-05C9.764 1.19939e-05 8.295 1.44701 8.295 3.23101C8.295 3.48501 8.325 3.73101 8.38 3.96701C7.07954 3.90533 5.80621 3.57326 4.64125 2.99199C3.47629 2.41072 2.44528 1.593 1.614 0.591012C1.32284 1.08301 1.16948 1.64431 1.17 2.21601C1.17 3.33601 1.75 4.32601 2.63 4.90601C2.10941 4.88967 1.59998 4.75092 1.143 4.50101V4.54101C1.143 6.10801 2.274 7.41401 3.776 7.71001C3.2925 7.83991 2.78592 7.85905 2.294 7.76601C2.50897 8.41199 2.91962 8.97507 3.469 9.37716C4.01838 9.77925 4.67926 10.0004 5.36 10.01C4.19208 10.9107 2.75787 11.3976 1.283 11.394C1.019 11.394 0.757 11.379 0.5 11.349C2.00601 12.2996 3.75108 12.8028 5.532 12.8C11.57 12.8 14.87 7.87601 14.87 3.60601C14.87 3.46601 14.867 3.32601 14.861 3.18801C15.5024 2.73212 16.0574 2.1656 16.5 1.51501Z" fill="black"/>
</svg>
