<svg width="22" height="16" viewBox="0 0 22 16" fill="none" xmlns="http://www.w3.org/2000/svg">
<path fill-rule="evenodd" clip-rule="evenodd" d="M10.935 0C12.263 0.007 17.403 0.0620002 18.825 0.477C19.728 0.739 20.44 1.514 20.682 2.497C21.06 4.034 21.112 7.011 21.119 7.802L21.12 7.987V8.197C21.112 8.989 21.06 11.965 20.681 13.502C20.44 14.485 19.728 15.26 18.825 15.523C18.135 15.724 16.572 15.84 14.993 15.908L14.401 15.931C12.831 15.987 11.353 15.998 10.825 16H10.415C9.886 15.998 8.408 15.987 6.838 15.93L6.248 15.908C4.668 15.84 3.104 15.724 2.415 15.523C1.511 15.26 0.799995 14.485 0.557995 13.502C0.179995 11.965 0.127995 8.989 0.119995 8.197V7.802C0.127995 7.011 0.179995 4.034 0.557995 2.498C0.799995 1.514 1.511 0.739 2.415 0.477C3.837 0.0620002 8.977 0.007 10.305 0H10.935ZM8.472 4.623V11.377L13.96 8L8.47 4.623H8.472Z" fill="black"/>
</svg>
